<svg width="200" height="200" viewBox="0 0 200 200" fill="none" xmlns="http://www.w3.org/2000/svg">
  <circle cx="100" cy="100" r="90" fill="#FF7F50" />
  
  <!-- Play Button -->
  <polygon points="80,70 130,100 80,130" fill="#FFFFFF" />
  
  <!-- Film Strip Elements -->
  <rect x="50" y="50" width="100" height="20" rx="5" fill="#FFFFFF" opacity="0.8" />
  <rect x="50" y="130" width="100" height="20" rx="5" fill="#FFFFFF" opacity="0.8" />
  
  <!-- Film Perforations -->
  <circle cx="60" cy="60" r="5" fill="#FF7F50" />
  <circle cx="80" cy="60" r="5" fill="#FF7F50" />
  <circle cx="100" cy="60" r="5" fill="#FF7F50" />
  <circle cx="120" cy="60" r="5" fill="#FF7F50" />
  <circle cx="140" cy="60" r="5" fill="#FF7F50" />
  
  <circle cx="60" cy="140" r="5" fill="#FF7F50" />
  <circle cx="80" cy="140" r="5" fill="#FF7F50" />
  <circle cx="100" cy="140" r="5" fill="#FF7F50" />
  <circle cx="120" cy="140" r="5" fill="#FF7F50" />
  <circle cx="140" cy="140" r="5" fill="#FF7F50" />
  
  <!-- AI Element -->
  <path d="M160 90 C170 90 170 110 160 110" stroke="#FFCC00" stroke-width="4" stroke-linecap="round" />
  <path d="M165 85 C180 85 180 115 165 115" stroke="#FFCC00" stroke-width="3" stroke-linecap="round" />
</svg> 